<svg xmlns="http://www.w3.org/2000/svg" id="services__icon"><path class="services__icon" d="M66.562 14.817H49.921V11.48c0-5.871-4.715-10.645-10.51-10.645H22.188c-5.795 0-10.51 4.774-10.51 10.646v3.337H10.51C4.715 14.817 0 19.592 0 25.463v40.13c0 5.87 4.715 10.645 10.51 10.645h56.053c5.795 0 10.51-4.773 10.51-10.645v-40.13c-.003-5.871-4.718-10.646-10.511-10.646zm5.252 50.995c0 2.929-2.363 5.323-5.254 5.323H10.51c-2.89 0-5.254-2.396-5.254-5.323V25.463c0-2.928 2.364-5.324 5.254-5.324h1.168c2.892 0 5.256-2.395 5.256-5.321v-3.337c0-2.928 2.364-5.324 5.254-5.324h17.224c2.893 0 5.256 2.396 5.256 5.324v3.337c0 2.927 2.364 5.321 5.254 5.321h16.641c2.891 0 5.254 2.396 5.254 5.324v40.349h-.003zM30.946 26.893c-9.493 0-17.189 7.795-17.189 17.409 0 9.614 7.696 17.409 17.189 17.409 9.494 0 17.188-7.795 17.188-17.409 0-9.614-7.695-17.409-17.188-17.409zm0 29.497c-6.58 0-11.934-5.423-11.934-12.088s5.354-12.086 11.934-12.086c6.58 0 11.933 5.421 11.933 12.086S37.526 56.39 30.946 56.39zm27.443-31.342c-2.421 0-4.38 1.986-4.38 4.436s1.959 4.435 4.38 4.435c2.418 0 4.379-1.984 4.379-4.435 0-2.45-1.961-4.436-4.379-4.436z"/></svg>