<svg xmlns="http://www.w3.org/2000/svg" viewBox="0 0 393.222 393.222" id="history__icon"><path class="history__icon" d="M360.283 117.049h-72.777v-40.94c0-18.165-14.774-32.944-32.936-32.944H32.936C14.774 43.165 0 57.944 0 76.109v126.252c0 18.161 14.774 32.936 32.936 32.936h16.87v33.378a7.498 7.498 0 0 0 12.903 5.201l37.138-38.58h5.867v40.944c0 18.163 14.776 32.939 32.938 32.939h154.723l37.141 38.578a7.5 7.5 0 0 0 12.903-5.201V309.18h16.864c18.162 0 32.938-14.776 32.938-32.939V149.988c.001-18.163-14.776-32.939-32.938-32.939zm-254.569 32.939v70.309h-9.058c-2.039 0-3.989.83-5.403 2.299L64.806 250.07v-22.273a7.5 7.5 0 0 0-7.5-7.5h-24.37c-9.89 0-17.936-8.046-17.936-17.936V76.109c0-9.894 8.046-17.944 17.936-17.944H254.57c9.89 0 17.936 8.05 17.936 17.944v40.94H138.652c-18.162 0-32.938 14.776-32.938 32.939zM378.222 276.24c0 9.892-8.047 17.939-17.938 17.939H335.92a7.5 7.5 0 0 0-7.5 7.5v22.272l-26.45-27.474a7.499 7.499 0 0 0-5.403-2.298H138.652c-9.892 0-17.938-8.047-17.938-17.939V149.988c0-9.892 8.047-17.939 17.938-17.939h221.631c9.892 0 17.938 8.047 17.938 17.939V276.24z"/></svg>