<svg xmlns="http://www.w3.org/2000/svg"><defs><symbol id="icon-tumblr" viewBox="0 0 32 32"><title>tumblr</title><path d="M21.02 26.791c-.93 0-1.743-.215-2.437-.646-.542-.32-.902-.736-1.083-1.25-.195-.5-.292-1.695-.292-3.584v-8.208h7.583V8.082h-7.583V-.001h-4.563c-.208 1.639-.583 3-1.125 4.083a8.88 8.88 0 0 1-2.146 2.75c-.889.75-1.965 1.334-3.229 1.75v4.521h3.541v11.229c0 1.486.153 2.604.458 3.354.292.75.841 1.479 1.646 2.188a8.49 8.49 0 0 0 2.875 1.562c1.125.375 2.417.563 3.875.563 1.333 0 2.535-.132 3.604-.396 1.056-.236 2.292-.688 3.708-1.354v-5.042c-1.597 1.056-3.208 1.584-4.833 1.584z"/></symbol><symbol id="icon-vimeo" viewBox="0 0 32 32"><title>vimeo</title><path d="M27.322 2.139c-4.449-.145-7.459 2.35-9.035 7.489.812-.334 1.601-.503 2.37-.503 1.622 0 2.34.91 2.149 2.736-.095 1.106-.812 2.714-2.149 4.825-1.342 2.115-2.345 3.17-3.01 3.17-.865 0-1.652-1.634-2.37-4.897-.241-.961-.672-3.408-1.289-7.348-.578-3.649-2.107-5.354-4.592-5.114-1.051.097-2.626 1.059-4.728 2.882A416.167 416.167 0 0 1 .001 9.557L1.506 11.5c1.436-1.009 2.276-1.511 2.51-1.511 1.101 0 2.13 1.727 3.087 5.182.858 3.173 1.723 6.341 2.585 9.509 1.284 3.457 2.867 5.186 4.728 5.186 3.011 0 6.698-2.832 11.046-8.498 4.206-5.424 6.378-9.698 6.524-12.822.193-4.175-1.361-6.313-4.662-6.408z"/></symbol><symbol id="icon-skype" viewBox="0 0 32 32"><title>skype</title><path d="M30.664 18.317c.116-.697.182-1.499.182-2.317 0-8.2-6.647-14.847-14.847-14.847-.787 0-1.562.065-2.317.183A8.971 8.971 0 0 0 1.335 13.684 15.12 15.12 0 0 0 1.154 16c0 8.2 6.647 14.845 14.845 14.845.787 0 1.563-.061 2.318-.18a8.973 8.973 0 0 0 12.347-12.349zm-7.615 4.435c-.628.904-1.551 1.611-2.756 2.119-1.208.509-2.636.763-4.285.763-1.976 0-3.612-.346-4.904-1.044a6.357 6.357 0 0 1-2.232-2.007c-.574-.837-.864-1.657-.864-2.456 0-.472.18-.882.53-1.216.354-.337.809-.506 1.347-.506.44 0 .819.133 1.127.395.306.263.562.645.772 1.149.251.584.524 1.072.815 1.462.289.385.695.706 1.221.957.521.252 1.213.378 2.08.378 1.186 0 2.145-.257 2.879-.763.737-.511 1.092-1.132 1.092-1.883 0-.599-.191-1.075-.583-1.446-.395-.376-.906-.662-1.539-.861-.636-.202-1.489-.416-2.559-.641-1.437-.314-2.638-.678-3.611-1.098-.974-.421-1.75-.996-2.325-1.722-.576-.733-.864-1.645-.864-2.725 0-1.03.303-1.95.911-2.752.607-.804 1.485-1.419 2.63-1.847 1.141-.428 2.484-.643 4.023-.643 1.231 0 2.295.142 3.196.426.899.285 1.648.662 2.247 1.135.595.472 1.033.969 1.31 1.491.277.523.417 1.035.417 1.534 0 .464-.18.885-.53 1.253s-.799.557-1.322.556c-.472 0-.842-.109-1.099-.339-.25-.223-.513-.578-.796-1.072-.359-.69-.789-1.228-1.289-1.612-.487-.377-1.29-.574-2.407-.572-1.034 0-1.861.211-2.486.624-.628.42-.929.907-.93 1.478.001.358.104.659.311.917.21.26.502.486.878.676.325.172.704.325 1.099.439l.043.011c.389.11 1.034.269 1.93.48 1.124.242 2.144.513 3.06.808.915.297 1.695.654 2.34 1.08a4.56 4.56 0 0 1 1.521 1.621c.365.655.547 1.456.547 2.397.001 1.134-.314 2.154-.944 3.057z"/></symbol><symbol id="icon-linkedin" viewBox="0 0 32 32"><title>linkedin</title><path d="M32 19.458v11.831h-6.859V20.251c0-2.773-.992-4.665-3.475-4.665-1.895 0-3.023 1.275-3.519 2.509-.181.441-.227 1.055-.227 1.672v11.522h-6.861s.092-18.695 0-20.632h6.86v2.925c-.014.022-.032.045-.045.067h.045v-.067c.911-1.404 2.539-3.409 6.183-3.409 4.514 0 7.898 2.949 7.898 9.286zM3.882.711C1.535.711 0 2.251 0 4.275c0 1.98 1.491 3.567 3.791 3.567h.046c2.393 0 3.881-1.586 3.881-3.567C7.673 2.25 6.23.711 3.883.711zM.407 31.289h6.858V10.657H.407v20.632z"/></symbol><symbol id="icon-google-plus" viewBox="0 0 32 32"><title>google-plus</title><path d="M18.413 20.375a9.958 9.958 0 0 0-1.121-1.265l-.004-.004c-.41-.391-.821-.747-1.231-1.067s-.785-.628-1.125-.923c-.34-.295-.615-.602-.827-.923s-.317-.647-.317-.981c0-.462.148-.894.442-1.298s.654-.795 1.077-1.173c.423-.378.846-.792 1.269-1.24s.782-1.042 1.077-1.779c.295-.737.442-1.58.442-2.529 0-1.128-.25-2.212-.75-3.25S16.14 2.097 15.23 1.52h2.596L20.422.001h-8.403a17.2 17.2 0 0 0-3.596.385c-1.782.397-3.282 1.305-4.5 2.721S2.096 6.129 2.096 7.924c0 1.897.683 3.474 2.048 4.73s3.003 1.884 4.913 1.884c.385 0 .833-.032 1.346-.096-.026.102-.07.24-.134.413l-.154.414a2.608 2.608 0 0 0-.134.823v.004c0 .846.41 1.801 1.231 2.865-.974.026-1.936.112-2.884.26s-1.942.378-2.981.692c-1.038.314-1.968.769-2.788 1.365S1.123 22.582.713 23.403c-.474.949-.712 1.814-.712 2.596 0 .859.192 1.638.577 2.337s.878 1.269 1.481 1.711c.602.443 1.298.814 2.086 1.116s1.57.516 2.346.644 1.542.192 2.298.192c3.436 0 6.128-.84 8.076-2.519 1.795-1.564 2.692-3.372 2.692-5.423 0-.731-.106-1.413-.317-2.048s-.487-1.18-.827-1.635zM11 13.385c-.654 0-1.276-.167-1.865-.5s-1.09-.766-1.5-1.298c-.41-.532-.769-1.131-1.077-1.798s-.535-1.333-.683-2a8.844 8.844 0 0 1-.221-1.904c0-1.231.327-2.288.981-3.173s1.577-1.327 2.769-1.327c.846 0 1.612.263 2.298.788s1.224 1.192 1.615 2c.357.715.666 1.551.885 2.422l.019.087c.211.865.317 1.683.317 2.452 0 1.282-.279 2.311-.836 3.087S12.244 13.384 11 13.384zm5.317 14.441c-.352.603-.83 1.074-1.432 1.413s-1.247.59-1.933.75a9.44 9.44 0 0 1-2.163.241c-.821 0-1.635-.096-2.442-.289s-1.58-.484-2.317-.875c-.737-.391-1.333-.929-1.788-1.615s-.683-1.465-.683-2.337c0-.769.173-1.455.519-2.058s.789-1.083 1.327-1.442c.538-.359 1.167-.654 1.885-.884s1.41-.391 2.077-.481a15.21 15.21 0 0 1 2.038-.134c.423 0 .744.013.962.038a84.78 84.78 0 0 1 1.222.847c.109.077.308.224.596.442s.493.381.615.49c.121.109.298.272.529.49s.401.407.51.567c.277.415.41.606.544.796l-.14-.21c.16.231.272.452.337.664.05.153.113.385.168.62l.014.072c.058.251.086.51.086.779 0 .807-.176 1.512-.529 2.115z"/><path d="M27.076 4.923V0h-2.462v4.923h-4.923v2.462h4.923v4.923h2.462V7.385h4.922V4.923z"/></symbol><symbol id="icon-rss" viewBox="0 0 32 32"><title>rss</title><path d="M10.519 26.74a5.26 5.26 0 1 1-10.52 0 5.26 5.26 0 0 1 10.52 0z"/><path d="M14.879 31.999h6.94c0-12.03-9.787-21.818-21.818-21.818v6.939c8.204 0 14.878 6.674 14.878 14.878z"/><path d="M25.06 31.999H32C32 14.355 17.645 0 .001 0v6.939c13.818 0 25.059 11.242 25.059 25.059z"/></symbol><symbol id="icon-twitter" viewBox="0 0 32 32"><title>twitter</title><path d="M28.724 9.473c.013.28.02.562.02.847 0 8.676-6.603 18.68-18.68 18.68h-.023c-3.73 0-7.203-1.1-10.113-2.993l.072.044c.516.059 1.038.09 1.566.09a13.14 13.14 0 0 0 8.152-2.809 6.576 6.576 0 0 1-6.117-4.513l-.013-.046c.4.077.81.118 1.235.118h.012c.611 0 1.202-.084 1.762-.241l-.046.011c-3.024-.629-5.264-3.271-5.266-6.436v-.082a6.543 6.543 0 0 0 2.975.821C2.49 11.77 1.341 9.772 1.341 7.505v-.007c0-1.203.324-2.33.888-3.301 3.252 3.979 8.062 6.577 13.485 6.857l.045.002a6.497 6.497 0 0 1-.17-1.496 6.564 6.564 0 0 1 6.564-6.563h.011c1.884 0 3.582.795 4.777 2.067l.003.003a13.156 13.156 0 0 0 4.23-1.625l-.06.033a6.615 6.615 0 0 1-2.858 3.614l-.029.016a13.023 13.023 0 0 0 3.851-1.065l-.082.033a13.435 13.435 0 0 1-3.235 3.374l-.038.026z"/></symbol><symbol id="icon-facebook" viewBox="0 0 32 32"><title>facebook</title><path d="M23.429 10.36l-.583 5.647H18.36v15.984h-6.64V16.007H8.561V10.36h3.16V6.705C11.721 4.091 12.963 0 18.424 0l4.922.021v5.483h-3.572c-.583 0-1.411.291-1.411 1.539v3.319l5.066-.001z"/></symbol></defs></svg>