<svg xmlns="http://www.w3.org/2000/svg" viewBox="0 0 471 471" id="services__icon">
    <path class="services__icon" d="M443.5 86.676h-416a5 5 0 0 0-5 5v253.493a5 5 0 0 0 5 5h416a5 5 0 0 0 5-5V91.676a5 5 0 0 0-5-5zm-5 253.493h-406V96.676h406v243.493z"/>
    <path class="services__icon" d="M449.055 64.176H21.946C9.845 64.176 0 74.021 0 86.121v264.602c0 12.101 9.845 21.945 21.946 21.945h148.343l-7.91 19.156h-31.772a7.5 7.5 0 0 0 0 15h209.79c4.143 0 7.5-3.358 7.5-7.5s-3.357-7.5-7.5-7.5h-31.772l-7.911-19.156h148.343c12.101 0 21.945-9.845 21.945-21.945V86.121c-.002-12.1-9.846-21.945-21.947-21.945zM292.394 391.825H178.606l7.911-19.156h97.967l7.91 19.156zM456 350.724a6.952 6.952 0 0 1-6.945 6.945H21.946c-3.83 0-6.946-3.116-6.946-6.945V86.121a6.954 6.954 0 0 1 6.946-6.946h427.109A6.953 6.953 0 0 1 456 86.121v264.603z"/>
</svg>
