<svg xmlns="http://www.w3.org/2000/svg" width="592.875" height="592.875" id="services__icon">
    <path class="services__icon" d="M401.625 0H191.25C170.212 0 153 17.212 153 38.25c-21.038 0-38.25 17.212-38.25 38.25-21.038 0-38.25 17.212-38.25 38.25v439.875c0 21.037 17.212 38.25 38.25 38.25h286.875c21.037 0 38.25-17.213 38.25-38.25 21.037 0 38.25-17.213 38.25-38.25 21.037 0 38.25-17.213 38.25-38.25V133.876L401.625 0zm0 28.688l89.888 105.188H420.75c-9.562 0-19.125-9.562-19.125-19.125V28.688zm0 545.062H114.75c-9.562 0-19.125-7.65-19.125-19.125V114.75c0-9.562 7.65-19.125 19.125-19.125v420.75c0 21.037 17.212 38.25 38.25 38.25h267.75c0 9.563-7.65 19.125-19.125 19.125zM459 516.375c0 9.562-7.65 19.125-19.125 19.125H153c-9.562 0-19.125-7.65-19.125-19.125V76.5c0-9.562 7.65-19.125 19.125-19.125v420.75c0 21.037 17.212 38.25 38.25 38.25H459zm38.25-38.25c0 9.562-7.65 19.125-19.125 19.125H191.25c-9.562 0-19.125-7.65-19.125-19.125V38.25c0-9.562 7.65-19.125 19.125-19.125H382.5v95.625c0 21.038 17.213 38.25 38.25 38.25h76.5v325.125z"/>
</svg>
