<svg xmlns="http://www.w3.org/2000/svg">
<defs>
<symbol id="icon-tumblr" viewBox="0 0 32 32">
<title>tumblr</title>
<path d="M21.020 26.791c-0.93 0-1.743-0.215-2.437-0.646-0.542-0.32-0.902-0.736-1.083-1.25-0.195-0.5-0.292-1.695-0.292-3.584v-8.208h7.583v-5.021h-7.583v-8.083h-4.563c-0.208 1.639-0.583 3-1.125 4.083-0.542 1.069-1.257 1.986-2.146 2.75-0.889 0.75-1.965 1.334-3.229 1.75v4.521h3.541v11.229c0 1.486 0.153 2.604 0.458 3.354 0.292 0.75 0.841 1.479 1.646 2.188 0.833 0.694 1.792 1.215 2.875 1.562 1.125 0.375 2.417 0.563 3.875 0.563 1.333 0 2.535-0.132 3.604-0.396 1.056-0.236 2.292-0.688 3.708-1.354v-5.042c-1.597 1.056-3.208 1.584-4.833 1.584z"></path>
</symbol>
<symbol id="icon-vimeo" viewBox="0 0 32 32">
<title>vimeo</title>
<path d="M27.322 2.139c-4.449-0.145-7.459 2.35-9.035 7.489 0.812-0.334 1.601-0.503 2.37-0.503 1.622 0 2.34 0.91 2.149 2.736-0.095 1.106-0.812 2.714-2.149 4.825-1.342 2.115-2.345 3.17-3.010 3.17-0.865 0-1.652-1.634-2.37-4.897-0.241-0.961-0.672-3.408-1.289-7.348-0.578-3.649-2.107-5.354-4.592-5.114-1.051 0.097-2.626 1.059-4.728 2.882-1.534 1.393-3.087 2.786-4.667 4.178l1.505 1.943c1.436-1.009 2.276-1.511 2.51-1.511 1.101 0 2.13 1.727 3.087 5.182 0.858 3.173 1.723 6.341 2.585 9.509 1.284 3.457 2.867 5.186 4.728 5.186 3.011 0 6.698-2.832 11.046-8.498 4.206-5.424 6.378-9.698 6.524-12.822 0.193-4.175-1.361-6.313-4.662-6.408z"></path>
</symbol>
<symbol id="icon-skype" viewBox="0 0 32 32">
<title>skype</title>
<path d="M30.664 18.317c0.116-0.697 0.182-1.499 0.182-2.317v0c0-8.2-6.647-14.847-14.847-14.847-0.787 0-1.562 0.065-2.317 0.183-1.367-0.846-2.981-1.336-4.711-1.336-4.955 0-8.972 4.016-8.972 8.972 0 1.729 0.49 3.342 1.336 4.712-0.117 0.757-0.181 1.527-0.181 2.316 0 8.2 6.647 14.845 14.845 14.845 0.787 0 1.563-0.061 2.318-0.18 1.369 0.844 2.981 1.335 4.71 1.335 4.956 0 8.973-4.017 8.973-8.973 0-1.73-0.489-3.342-1.336-4.711zM23.049 22.752c-0.628 0.904-1.551 1.611-2.756 2.119-1.208 0.509-2.636 0.763-4.285 0.763-1.976 0-3.612-0.346-4.904-1.044-0.915-0.5-1.66-1.171-2.232-2.007-0.574-0.837-0.864-1.657-0.864-2.456 0-0.472 0.18-0.882 0.53-1.216 0.354-0.337 0.809-0.506 1.347-0.506 0.44 0 0.819 0.133 1.127 0.395 0.306 0.263 0.562 0.645 0.772 1.149 0.251 0.584 0.524 1.072 0.815 1.462 0.289 0.385 0.695 0.706 1.221 0.957 0.521 0.252 1.213 0.378 2.080 0.378 1.186 0 2.145-0.257 2.879-0.763 0.737-0.511 1.092-1.132 1.092-1.883 0-0.599-0.191-1.075-0.583-1.446-0.395-0.376-0.906-0.662-1.539-0.861-0.636-0.202-1.489-0.416-2.559-0.641-1.437-0.314-2.638-0.678-3.611-1.098-0.974-0.421-1.75-0.996-2.325-1.722-0.576-0.733-0.864-1.645-0.864-2.725 0-1.030 0.303-1.95 0.911-2.752 0.607-0.804 1.485-1.419 2.63-1.847 1.141-0.428 2.484-0.643 4.023-0.643 1.231 0 2.295 0.142 3.196 0.426 0.899 0.285 1.648 0.662 2.247 1.135 0.595 0.472 1.033 0.969 1.31 1.491 0.277 0.523 0.417 1.035 0.417 1.534 0 0.464-0.18 0.885-0.53 1.253s-0.799 0.557-1.322 0.556c-0.472 0-0.842-0.109-1.099-0.339-0.25-0.223-0.513-0.578-0.796-1.072-0.359-0.69-0.789-1.228-1.289-1.612-0.487-0.377-1.29-0.574-2.407-0.572-1.034 0-1.861 0.211-2.486 0.624-0.628 0.42-0.929 0.907-0.93 1.478 0.001 0.358 0.104 0.659 0.311 0.917 0.21 0.26 0.502 0.486 0.878 0.676 0.325 0.172 0.704 0.325 1.099 0.439l0.043 0.011c0.389 0.11 1.034 0.269 1.93 0.48 1.124 0.242 2.144 0.513 3.060 0.808 0.915 0.297 1.695 0.654 2.34 1.080 0.65 0.425 1.158 0.966 1.521 1.621 0.365 0.655 0.547 1.456 0.547 2.397 0.001 1.134-0.314 2.154-0.944 3.057z"></path>
</symbol>
<symbol id="icon-linkedin" viewBox="0 0 32 32">
<title>linkedin</title>
<path d="M32 19.458v11.831h-6.859v-11.038c0-2.773-0.992-4.665-3.475-4.665-1.895 0-3.023 1.275-3.519 2.509-0.181 0.441-0.227 1.055-0.227 1.672v11.522h-6.861s0.092-18.695 0-20.632h6.86v2.925c-0.014 0.022-0.032 0.045-0.045 0.067h0.045v-0.067c0.911-1.404 2.539-3.409 6.183-3.409 4.514-0 7.898 2.949 7.898 9.286zM3.882 0.711c-2.347 0-3.882 1.54-3.882 3.564 0 1.98 1.491 3.567 3.791 3.567h0.046c2.393 0 3.881-1.586 3.881-3.567-0.045-2.025-1.488-3.564-3.835-3.564zM0.407 31.289h6.858v-20.632h-6.858v20.632z"></path>
</symbol>
<symbol id="icon-google-plus" viewBox="0 0 32 32">
<title>google-plus</title>
<path d="M18.413 20.375c-0.351-0.469-0.72-0.884-1.121-1.265l-0.004-0.004c-0.41-0.391-0.821-0.747-1.231-1.067s-0.785-0.628-1.125-0.923c-0.34-0.295-0.615-0.602-0.827-0.923s-0.317-0.647-0.317-0.981c0-0.462 0.148-0.894 0.442-1.298s0.654-0.795 1.077-1.173c0.423-0.378 0.846-0.792 1.269-1.24s0.782-1.042 1.077-1.779c0.295-0.737 0.442-1.58 0.442-2.529 0-1.128-0.25-2.212-0.75-3.25s-1.205-1.846-2.115-2.423h2.596l2.596-1.519h-8.403c-1.192 0-2.391 0.128-3.596 0.385-1.782 0.397-3.282 1.305-4.5 2.721s-1.827 3.022-1.827 4.817c0 1.897 0.683 3.474 2.048 4.73s3.003 1.884 4.913 1.884c0.385 0 0.833-0.032 1.346-0.096-0.026 0.102-0.070 0.24-0.134 0.413s-0.116 0.311-0.154 0.414c-0.038 0.102-0.071 0.227-0.096 0.375-0.024 0.135-0.038 0.29-0.038 0.448 0 0.001 0 0.003 0 0.004v-0c0 0.846 0.41 1.801 1.231 2.865-0.974 0.026-1.936 0.112-2.884 0.26s-1.942 0.378-2.981 0.692c-1.038 0.314-1.968 0.769-2.788 1.365s-1.436 1.304-1.846 2.125c-0.474 0.949-0.712 1.814-0.712 2.596 0 0.859 0.192 1.638 0.577 2.337s0.878 1.269 1.481 1.711c0.602 0.443 1.298 0.814 2.086 1.116s1.57 0.516 2.346 0.644c0.776 0.128 1.542 0.192 2.298 0.192 3.436 0 6.128-0.84 8.076-2.519 1.795-1.564 2.692-3.372 2.692-5.423 0-0.731-0.106-1.413-0.317-2.048s-0.487-1.18-0.827-1.635zM11 13.385c-0.654 0-1.276-0.167-1.865-0.5s-1.090-0.766-1.5-1.298c-0.41-0.532-0.769-1.131-1.077-1.798s-0.535-1.333-0.683-2c-0.147-0.666-0.221-1.301-0.221-1.904 0-1.231 0.327-2.288 0.981-3.173s1.577-1.327 2.769-1.327c0.846 0 1.612 0.263 2.298 0.788s1.224 1.192 1.615 2c0.357 0.715 0.666 1.551 0.885 2.422l0.019 0.087c0.211 0.865 0.317 1.683 0.317 2.452 0 1.282-0.279 2.311-0.836 3.087s-1.458 1.163-2.702 1.163zM16.317 27.826c-0.352 0.603-0.83 1.074-1.432 1.413s-1.247 0.59-1.933 0.75c-0.686 0.161-1.407 0.241-2.163 0.241-0.821 0-1.635-0.096-2.442-0.289s-1.58-0.484-2.317-0.875c-0.737-0.391-1.333-0.929-1.788-1.615s-0.683-1.465-0.683-2.337c0-0.769 0.173-1.455 0.519-2.058s0.789-1.083 1.327-1.442c0.538-0.359 1.167-0.654 1.885-0.884s1.41-0.391 2.077-0.481c0.666-0.090 1.346-0.134 2.038-0.134 0.423 0 0.744 0.013 0.962 0.038 0.077 0.052 0.272 0.186 0.587 0.404s0.526 0.366 0.635 0.443c0.109 0.077 0.308 0.224 0.596 0.442s0.493 0.381 0.615 0.49c0.121 0.109 0.298 0.272 0.529 0.49s0.401 0.407 0.51 0.567c0.277 0.415 0.41 0.606 0.544 0.796l-0.14-0.21c0.16 0.231 0.272 0.452 0.337 0.664 0.050 0.153 0.113 0.385 0.168 0.62l0.014 0.072c0.058 0.251 0.086 0.51 0.086 0.779 0 0.807-0.176 1.512-0.529 2.115z"></path>
<path d="M27.076 4.923v-4.923h-2.462v4.923h-4.923v2.462h4.923v4.923h2.462v-4.923h4.922v-2.462z"></path>
</symbol>
<symbol id="icon-rss" viewBox="0 0 32 32">
<title>rss</title>
<path d="M10.519 26.74c0 2.905-2.355 5.26-5.26 5.26s-5.26-2.355-5.26-5.26c0-2.905 2.355-5.26 5.26-5.26s5.26 2.355 5.26 5.26z"></path>
<path d="M14.879 31.999h6.94c0-12.030-9.787-21.818-21.818-21.818v6.939c8.204 0 14.878 6.674 14.878 14.878z"></path>
<path d="M25.060 31.999h6.94c0-17.644-14.355-31.999-31.999-31.999v6.939c13.818 0 25.059 11.242 25.059 25.059z"></path>
</symbol>
<symbol id="icon-twitter" viewBox="0 0 32 32">
<title>twitter</title>
<path d="M28.724 9.473c0.013 0.28 0.020 0.562 0.020 0.847 0 8.676-6.603 18.68-18.68 18.68-0.007 0-0.015 0-0.023 0-3.73 0-7.203-1.1-10.113-2.993l0.072 0.044c0.516 0.059 1.038 0.090 1.566 0.090 3.079 0 5.906-1.045 8.152-2.809-2.86-0.057-5.267-1.931-6.117-4.513l-0.013-0.046c0.4 0.077 0.81 0.118 1.235 0.118 0.004 0 0.008 0 0.012 0 0.611 0 1.202-0.084 1.762-0.241l-0.046 0.011c-3.024-0.629-5.264-3.271-5.266-6.436v-0.082c0.887 0.492 1.898 0.787 2.975 0.821-1.77-1.194-2.919-3.192-2.919-5.459 0-0.002 0-0.005 0-0.007v0c0-1.203 0.324-2.33 0.888-3.301 3.252 3.979 8.062 6.577 13.485 6.857l0.045 0.002c-0.108-0.449-0.17-0.965-0.17-1.496 0-0 0-0 0-0v0c0.001-3.625 2.939-6.563 6.564-6.563 0.001 0 0.002 0 0.003 0h-0c0.002 0 0.005 0 0.008 0 1.884 0 3.582 0.795 4.777 2.067l0.003 0.003c1.573-0.316 2.97-0.868 4.23-1.625l-0.060 0.033c-0.508 1.547-1.529 2.809-2.858 3.614l-0.029 0.016c1.398-0.168 2.671-0.531 3.851-1.065l-0.082 0.033c-0.897 1.333-1.983 2.46-3.235 3.374l-0.038 0.026z"></path>
</symbol>
<symbol id="icon-facebook" viewBox="0 0 32 32">
<title>facebook</title>
<path d="M23.429 10.36l-0.583 5.647h-4.486v15.984h-6.64v-15.984h-3.159v-5.647h3.16v-3.655c0-2.614 1.242-6.705 6.703-6.705l4.922 0.021v5.483h-3.572c-0.583 0-1.411 0.291-1.411 1.539v3.319l5.066-0.001z"></path>
</symbol>
</defs>
</svg>
