<svg xmlns="http://www.w3.org/2000/svg" width="438.542" height="438.543"><path d="M288.078 367.164c-12.748 0-23.887-2.95-33.4-8.85-7.427-4.381-12.368-10.089-14.842-17.132-2.673-6.852-4.001-23.223-4.001-49.115V179.58h103.921v-68.806H235.834V0h-62.53c-2.856 22.458-7.992 41.109-15.415 55.963-7.424 14.655-17.227 27.218-29.408 37.685-12.183 10.282-26.934 18.276-44.255 23.984v61.955h48.535v153.889c0 20.365 2.096 35.69 6.28 45.967 3.999 10.283 11.519 20.272 22.557 29.981 11.419 9.514 24.554 16.652 39.399 21.406 15.418 5.14 33.12 7.713 53.105 7.713 18.274 0 34.735-1.813 49.392-5.428 14.466-3.237 31.409-9.424 50.823-18.562V345.46c-21.892 14.473-43.968 21.704-66.239 21.704z"/></svg>